<svg xmlns="http://www.w3.org/2000/svg" width="60" height="24" viewBox="0 0 60 24">

  <path d="M6,14 Q10,4 26,4 Q46,4 54,10 Q58,13 54,16 Q40,22 20,20 Q8,19 6,14 Z" fill="#7A5230" stroke="#3A2E2A" stroke-width="2.5" stroke-linejoin="round" />
  <path d="M10,15 Q26,20 48,15 Q30,19 10,17 Z" fill="#4E2F1C" opacity="0.6"/>
  <path d="M52,9 Q57,4 59,1" fill="none" stroke="#3A2E2A" stroke-width="2" stroke-linecap="round"/>
  <path d="M50,9 Q52,3 51,0" fill="none" stroke="#3A2E2A" stroke-width="2" stroke-linecap="round"/>
  <circle cx="52" cy="11" r="3.5" fill="#7A5230" stroke="#3A2E2A" stroke-width="2.5" stroke-linejoin="round" />
  <path d="M16,20 L14,24 M22,20 L21,24 M28,20 L28,24" fill="none" stroke="#3A2E2A" stroke-width="1.6" stroke-linecap="round"/>

</svg>
