<svg xmlns="http://www.w3.org/2000/svg" width="380" height="620" viewBox="0 0 380 620">

  <defs>
    <clipPath id="canopy-clip-c1">
      <path d="M408.21,168.66 C406.90,182.44 398.55,195.66 394.31,209.20 C390.06,222.74 390.88,238.42 382.72,249.90 C374.56,261.37 358.85,270.61 345.35,278.06 C331.84,285.51 314.19,286.17 301.68,294.60 C289.18,303.04 283.14,318.60 270.34,328.67 C257.54,338.75 241.74,348.83 224.90,355.03 C208.05,361.24 187.99,365.58 169.27,365.92 C150.54,366.26 128.17,365.20 112.53,357.08 C96.90,348.95 85.27,330.73 75.46,317.16 C65.65,303.58 60.44,288.44 53.68,275.63 C46.92,262.81 41.72,251.74 34.91,240.28 C28.10,228.81 20.17,218.79 12.82,206.85 C5.47,194.92 -4.18,182.42 -9.18,168.66 C-14.18,154.90 -18.76,138.75 -17.18,124.28 C-15.60,109.80 -6.87,95.70 0.31,81.84 C7.49,67.97 13.94,52.05 25.91,41.10 C37.89,30.15 55.48,21.36 72.15,16.14 C88.81,10.92 109.11,13.03 125.91,9.78 C142.71,6.53 156.79,-1.24 172.93,-3.35 C189.07,-5.47 206.76,-5.46 222.75,-2.90 C238.73,-0.34 252.61,8.10 268.83,11.99 C285.04,15.88 304.19,14.87 320.04,20.46 C335.88,26.04 353.51,34.31 363.89,45.50 C374.26,56.69 375.90,74.12 382.28,87.62 C388.66,101.11 397.84,112.99 402.17,126.50 C406.49,140.00 409.52,154.88 408.21,168.66 Z"/>
    </clipPath>
  </defs>

  <!-- trunk (unchanged) -->
  <path d="M163.4,620 Q136.8,440.2 163.4,260.4 L216.6,260.4 Q243.2,440.2 216.6,620 Z" fill="#7A5230" stroke="#3A2E2A" stroke-width="2.5" stroke-linejoin="round" />
  <path d="M190,260.4 L216.6,260.4 Q243.2,440.2 216.6,620 L190,620 Z" fill="#4E2F1C" opacity="0.55"/>

  <!-- canopy: single scalloped paper-cut silhouette, cut with a few leaf notches -->
  <path d="M408.21,168.66 C406.90,182.44 398.55,195.66 394.31,209.20 C390.06,222.74 390.88,238.42 382.72,249.90 C374.56,261.37 358.85,270.61 345.35,278.06 C331.84,285.51 314.19,286.17 301.68,294.60 C289.18,303.04 283.14,318.60 270.34,328.67 C257.54,338.75 241.74,348.83 224.90,355.03 C208.05,361.24 187.99,365.58 169.27,365.92 C150.54,366.26 128.17,365.20 112.53,357.08 C96.90,348.95 85.27,330.73 75.46,317.16 C65.65,303.58 60.44,288.44 53.68,275.63 C46.92,262.81 41.72,251.74 34.91,240.28 C28.10,228.81 20.17,218.79 12.82,206.85 C5.47,194.92 -4.18,182.42 -9.18,168.66 C-14.18,154.90 -18.76,138.75 -17.18,124.28 C-15.60,109.80 -6.87,95.70 0.31,81.84 C7.49,67.97 13.94,52.05 25.91,41.10 C37.89,30.15 55.48,21.36 72.15,16.14 C88.81,10.92 109.11,13.03 125.91,9.78 C142.71,6.53 156.79,-1.24 172.93,-3.35 C189.07,-5.47 206.76,-5.46 222.75,-2.90 C238.73,-0.34 252.61,8.10 268.83,11.99 C285.04,15.88 304.19,14.87 320.04,20.46 C335.88,26.04 353.51,34.31 363.89,45.50 C374.26,56.69 375.90,74.12 382.28,87.62 C388.66,101.11 397.84,112.99 402.17,126.50 C406.49,140.00 409.52,154.88 408.21,168.66 Z" fill="#6FA85A"/>

  <g clip-path="url(#canopy-clip-c1)">
    <path d="M366.39,202.76 C367.34,217.10 364.66,232.87 357.63,246.80 C350.61,260.73 339.92,277.87 324.26,286.35 C308.60,294.82 283.31,296.40 263.68,297.66 C244.06,298.93 224.87,297.19 206.51,293.95 C188.15,290.70 167.06,286.89 153.54,278.20 C140.01,269.51 131.42,254.38 125.38,241.81 C119.33,229.24 116.64,215.55 117.27,202.76 C117.90,189.98 121.79,176.41 129.17,165.08 C136.54,153.74 148.67,143.82 161.52,134.76 C174.37,125.70 189.33,114.82 206.24,110.72 C223.15,106.62 245.52,106.69 262.98,110.16 C280.44,113.63 296.18,123.10 310.99,131.54 C325.81,139.97 342.65,148.91 351.88,160.78 C361.11,172.66 365.43,188.43 366.39,202.76 Z" fill="#4F8A42" opacity="0.5"/>
    <path d="M214.16,108.98 C213.84,118.08 209.03,127.68 202.85,135.88 C196.66,144.08 188.06,153.10 177.05,158.17 C166.04,163.23 151.01,165.29 136.78,166.27 C122.55,167.26 103.56,168.78 91.66,164.08 C79.77,159.37 70.98,147.22 65.41,138.03 C59.83,128.85 57.69,118.44 58.24,108.98 C58.79,99.52 61.89,88.93 68.70,81.26 C75.50,73.59 87.74,67.70 99.09,62.95 C110.44,58.20 124.22,52.77 136.78,52.77 C149.34,52.77 163.13,58.20 174.46,62.95 C185.80,67.70 198.18,73.61 204.80,81.29 C211.42,88.96 214.49,99.88 214.16,108.98 Z" fill="#89C46F" opacity="0.4"/>
  </g>

  <path d="M408.21,168.66 C406.90,182.44 398.55,195.66 394.31,209.20 C390.06,222.74 390.88,238.42 382.72,249.90 C374.56,261.37 358.85,270.61 345.35,278.06 C331.84,285.51 314.19,286.17 301.68,294.60 C289.18,303.04 283.14,318.60 270.34,328.67 C257.54,338.75 241.74,348.83 224.90,355.03 C208.05,361.24 187.99,365.58 169.27,365.92 C150.54,366.26 128.17,365.20 112.53,357.08 C96.90,348.95 85.27,330.73 75.46,317.16 C65.65,303.58 60.44,288.44 53.68,275.63 C46.92,262.81 41.72,251.74 34.91,240.28 C28.10,228.81 20.17,218.79 12.82,206.85 C5.47,194.92 -4.18,182.42 -9.18,168.66 C-14.18,154.90 -18.76,138.75 -17.18,124.28 C-15.60,109.80 -6.87,95.70 0.31,81.84 C7.49,67.97 13.94,52.05 25.91,41.10 C37.89,30.15 55.48,21.36 72.15,16.14 C88.81,10.92 109.11,13.03 125.91,9.78 C142.71,6.53 156.79,-1.24 172.93,-3.35 C189.07,-5.47 206.76,-5.46 222.75,-2.90 C238.73,-0.34 252.61,8.10 268.83,11.99 C285.04,15.88 304.19,14.87 320.04,20.46 C335.88,26.04 353.51,34.31 363.89,45.50 C374.26,56.69 375.90,74.12 382.28,87.62 C388.66,101.11 397.84,112.99 402.17,126.50 C406.49,140.00 409.52,154.88 408.21,168.66 Z" fill="none" stroke="#3A2E2A" stroke-width="2.5" stroke-linejoin="round"/>

</svg>
