<svg xmlns="http://www.w3.org/2000/svg" width="640" height="920" viewBox="0 0 640 920">

  <defs>
    <clipPath id="branch-clip-street">
      <path d="M240,480 L90,480 A10,10 0 0 0 90,500 C130,512 170,500 198,508 C214,513 226,518 240,524 Z"/>
    </clipPath>
    <clipPath id="canopy-clip-street">
      <path d="M624.79,150.00 C622.87,168.19 610.68,185.63 604.48,203.50 C598.27,221.36 599.47,242.05 587.55,257.19 C575.63,272.34 552.68,284.53 532.95,294.36 C513.22,304.19 487.43,305.05 469.16,316.18 C450.90,327.31 442.07,347.85 423.38,361.14 C404.68,374.43 381.59,387.73 356.98,395.92 C332.37,404.11 303.07,409.83 275.71,410.28 C248.35,410.73 215.67,409.34 192.83,398.62 C169.99,387.89 153.00,363.85 138.67,345.94 C124.34,328.03 116.72,308.05 106.85,291.14 C96.97,274.24 89.38,259.62 79.43,244.50 C69.49,229.37 57.90,216.14 47.16,200.39 C36.43,184.64 22.33,168.16 15.02,150.00 C7.72,131.84 1.02,110.53 3.33,91.43 C5.64,72.34 18.39,53.73 28.88,35.44 C39.37,17.14 48.80,-3.87 66.29,-18.32 C83.78,-32.77 109.48,-44.36 133.83,-51.25 C158.18,-58.14 187.84,-55.36 212.37,-59.64 C236.91,-63.93 257.48,-74.18 281.06,-76.97 C304.64,-79.76 330.49,-79.75 353.84,-76.37 C377.19,-73.00 397.47,-61.86 421.16,-56.73 C444.85,-51.59 472.83,-52.92 495.97,-45.55 C519.12,-38.18 544.88,-27.28 560.04,-12.51 C575.19,2.26 577.59,25.25 586.91,43.06 C596.23,60.87 609.64,76.54 615.96,94.36 C622.27,112.19 626.70,131.81 624.79,150.00 Z"/>
    </clipPath>
  </defs>

  <!-- trunk with rectangular door-hole (80x120) punched out via evenodd, just above the left branch (unchanged) -->
  <path d="M242,920 Q225,650 244,300 L396,300 Q415,650 398,920 Z M280,350 L360,350 L360,470 L280,470 Z"
        fill="#7A5230" stroke="#3A2E2A" stroke-width="2.5" stroke-linejoin="round" fill-rule="evenodd" />
  <path d="M320,300 L396,300 Q415,650 398,920 L340,920 Z M320,350 L360,350 L360,470 L320,470 Z"
        fill="#4E2F1C" opacity="0.55" fill-rule="evenodd" />

  <!-- left branch: trunk edge x=240 out to tip x=90, standing surface flat at y=480 (unchanged) -->
  <path d="M240,480 L90,480 A10,10 0 0 0 90,500 C130,512 170,500 198,508 C214,513 226,518 240,524 Z"
        fill="#7A5230"/>
  <g clip-path="url(#branch-clip-street)">
    <path d="M90,500 C130,512 170,500 198,508 C214,513 226,518 240,524 L240,540 L80,540 Z" fill="#4E2F1C" opacity="0.5"/>
    <path d="M100,483 C140,485 180,483 220,486" fill="none" stroke="#9A7448" stroke-width="2" opacity="0.55" stroke-linecap="round"/>
    <path d="M115,490 C150,494 185,494 215,498" fill="none" stroke="#4E2F1C" stroke-width="1.5" opacity="0.4" stroke-linecap="round"/>
  </g>
  <path d="M240,480 L90,480 A10,10 0 0 0 90,500 C130,512 170,500 198,508 C214,513 226,518 240,524 Z"
        fill="none" stroke="#3A2E2A" stroke-width="2.5" stroke-linejoin="round"/>

  <!-- a couple of leaves sprouting at the branch tip -->
  <path d="M92,478 C78,468 66,470 60,482 C66,494 80,494 92,486 Z" fill="#6FA85A" stroke="#3A2E2A" stroke-width="2" stroke-linejoin="round"/>
  <path d="M96,470 C88,456 76,452 66,458 C68,472 80,478 96,478 Z" fill="#6FA85A" stroke="#3A2E2A" stroke-width="2" stroke-linejoin="round"/>
  <path d="M60,482 C66,478 74,478 80,481" fill="none" stroke="#4F8A42" stroke-width="1.5" opacity="0.6"/>
  <path d="M78,460 C82,464 84,470 84,474" fill="none" stroke="#4F8A42" stroke-width="1.5" opacity="0.6"/>

  <!-- canopy: single scalloped paper-cut silhouette, cut with a few leaf notches -->
  <path d="M624.79,150.00 C622.87,168.19 610.68,185.63 604.48,203.50 C598.27,221.36 599.47,242.05 587.55,257.19 C575.63,272.34 552.68,284.53 532.95,294.36 C513.22,304.19 487.43,305.05 469.16,316.18 C450.90,327.31 442.07,347.85 423.38,361.14 C404.68,374.43 381.59,387.73 356.98,395.92 C332.37,404.11 303.07,409.83 275.71,410.28 C248.35,410.73 215.67,409.34 192.83,398.62 C169.99,387.89 153.00,363.85 138.67,345.94 C124.34,328.03 116.72,308.05 106.85,291.14 C96.97,274.24 89.38,259.62 79.43,244.50 C69.49,229.37 57.90,216.14 47.16,200.39 C36.43,184.64 22.33,168.16 15.02,150.00 C7.72,131.84 1.02,110.53 3.33,91.43 C5.64,72.34 18.39,53.73 28.88,35.44 C39.37,17.14 48.80,-3.87 66.29,-18.32 C83.78,-32.77 109.48,-44.36 133.83,-51.25 C158.18,-58.14 187.84,-55.36 212.37,-59.64 C236.91,-63.93 257.48,-74.18 281.06,-76.97 C304.64,-79.76 330.49,-79.75 353.84,-76.37 C377.19,-73.00 397.47,-61.86 421.16,-56.73 C444.85,-51.59 472.83,-52.92 495.97,-45.55 C519.12,-38.18 544.88,-27.28 560.04,-12.51 C575.19,2.26 577.59,25.25 586.91,43.06 C596.23,60.87 609.64,76.54 615.96,94.36 C622.27,112.19 626.70,131.81 624.79,150.00 Z" fill="#6FA85A"/>

  <g clip-path="url(#canopy-clip-street)">
    <path d="M563.69,195.00 C565.09,213.92 561.16,234.73 550.90,253.11 C540.64,271.49 525.02,294.10 502.14,305.29 C479.26,316.47 442.32,318.55 413.65,320.22 C384.98,321.89 356.94,319.59 330.12,315.31 C303.30,311.03 272.49,306.01 252.73,294.54 C232.98,283.08 220.42,263.11 211.59,246.52 C202.76,229.93 198.83,211.87 199.75,195.00 C200.67,178.13 206.36,160.23 217.13,145.27 C227.91,130.32 245.63,117.23 264.40,105.27 C283.16,93.32 305.03,78.95 329.73,73.54 C354.43,68.13 387.11,68.24 412.62,72.82 C438.12,77.39 461.12,89.88 482.76,101.01 C504.41,112.15 529.01,123.94 542.49,139.61 C555.98,155.27 562.28,176.08 563.69,195.00 Z" fill="#4F8A42" opacity="0.5"/>
    <path d="M341.30,71.25 C340.83,83.26 333.81,95.93 324.77,106.74 C315.74,117.56 303.18,129.47 287.09,136.16 C271.00,142.84 249.04,145.55 228.25,146.85 C207.46,148.15 179.72,150.16 162.34,143.95 C144.96,137.74 132.12,121.71 123.98,109.59 C115.84,97.47 112.71,83.74 113.51,71.25 C114.31,58.76 118.84,44.80 128.79,34.68 C138.73,24.55 156.62,16.78 173.19,10.52 C189.77,4.25 209.90,-2.91 228.25,-2.91 C246.60,-2.91 266.74,4.25 283.31,10.52 C299.87,16.79 317.96,24.59 327.62,34.71 C337.29,44.83 341.78,59.24 341.30,71.25 Z" fill="#89C46F" opacity="0.4"/>
  </g>

  <path d="M624.79,150.00 C622.87,168.19 610.68,185.63 604.48,203.50 C598.27,221.36 599.47,242.05 587.55,257.19 C575.63,272.34 552.68,284.53 532.95,294.36 C513.22,304.19 487.43,305.05 469.16,316.18 C450.90,327.31 442.07,347.85 423.38,361.14 C404.68,374.43 381.59,387.73 356.98,395.92 C332.37,404.11 303.07,409.83 275.71,410.28 C248.35,410.73 215.67,409.34 192.83,398.62 C169.99,387.89 153.00,363.85 138.67,345.94 C124.34,328.03 116.72,308.05 106.85,291.14 C96.97,274.24 89.38,259.62 79.43,244.50 C69.49,229.37 57.90,216.14 47.16,200.39 C36.43,184.64 22.33,168.16 15.02,150.00 C7.72,131.84 1.02,110.53 3.33,91.43 C5.64,72.34 18.39,53.73 28.88,35.44 C39.37,17.14 48.80,-3.87 66.29,-18.32 C83.78,-32.77 109.48,-44.36 133.83,-51.25 C158.18,-58.14 187.84,-55.36 212.37,-59.64 C236.91,-63.93 257.48,-74.18 281.06,-76.97 C304.64,-79.76 330.49,-79.75 353.84,-76.37 C377.19,-73.00 397.47,-61.86 421.16,-56.73 C444.85,-51.59 472.83,-52.92 495.97,-45.55 C519.12,-38.18 544.88,-27.28 560.04,-12.51 C575.19,2.26 577.59,25.25 586.91,43.06 C596.23,60.87 609.64,76.54 615.96,94.36 C622.27,112.19 626.70,131.81 624.79,150.00 Z" fill="none" stroke="#3A2E2A" stroke-width="2.5" stroke-linejoin="round"/>

</svg>
